<svg width="0" height="0" class="hidden">
  <symbol id="boat" xmlns="http://www.w3.org/2000/svg" viewBox="0 0 35.38 36.29">
        <polygon points="16.72 .72 16.72 5.4 10.6 5.4 13.66 3.06 10.6 .72 16.72 .72"></polygon>
        <path d="M16.72,6.12h-6.12c-.31,0-.58-.2-.68-.49-.1-.29,0-.61,.24-.8l2.32-1.77-2.32-1.77c-.24-.19-.34-.51-.24-.8,.1-.28,.37-.48,.68-.48h6.12c.39,0,.71,.32,.71,.71V5.4c0,.39-.32,.71-.71,.71h0Zm-4.01-1.42h3.3V1.44h-3.3l1.38,1.06c.18,.14,.28,.34,.28,.57s-.1,.43-.28,.57l-1.38,1.06h0Z"></path>
        <polygon points="16.72 .72 34.64 24.68 16.72 24.68 16.72 .72"></polygon>
        <path d="M34.65,25.4H16.72c-.39,0-.71-.32-.71-.71V.72c0-.31,.2-.58,.49-.68,.29-.1,.61,0,.8,.25l17.87,23.89c.12,.13,.2,.3,.2,.5,0,.39-.32,.71-.71,.71h0Zm-17.21-1.42h15.78L17.43,2.87V23.97h.01Z"></path>
        <polygon points="1.02 24.68 13.66 24.68 13.66 8.42 1.02 24.68"></polygon>
        <path d="M13.66,25.4H1.02c-.27,0-.52-.16-.64-.4s-.09-.54,.08-.75L13.09,7.98c.19-.24,.51-.34,.8-.24,.29,.1,.48,.37,.48,.68V24.68c0,.39-.32,.71-.71,.71h0Zm-11.18-1.42H12.94V10.5S2.48,23.97,2.48,23.97Z"></path>
        <path d="M1.02,27.63H34.64s1.6,7.95-17.92,7.95S1.02,27.63,1.02,27.63Z"></path>
        <path d="M16.72,36.29c-8.68,0-14.06-1.55-15.98-4.61-1.38-2.19-.41-4.27-.36-4.36,.12-.25,.37-.41,.64-.41H34.64c.34,0,.63,.24,.7,.57,.02,.08,.38,1.99-1.28,4.02-2.6,3.18-8.43,4.79-17.34,4.79ZM1.53,28.35c-.13,.54-.24,1.55,.43,2.6,1.14,1.79,4.63,3.92,14.76,3.92s14.64-2.32,16.23-4.26c.73-.89,.94-1.73,.99-2.26H1.53Z"></path>
  </symbol>
  <symbol id="coral" xmlns="http://www.w3.org/2000/svg" viewBox="0 0 36 36.23">
        <path d="M13.59,17.47c.74-.31,1.24-.99,1.72-1.63s1.02-1.3,1.77-1.56c.76-.26,1.77,.09,1.92,.88,.09,.46-.14,.93-.44,1.3-.99,1.23-2.62,1.68-4.1,2.23s-3.06,1.45-3.42,2.98c-.55,2.29,1.92,4.62,1.12,6.84-.53,1.44-2.29,2.22-2.64,3.72-.25,1.05,.19,2.41-.67,3.07-.78,.59-2-.12-2.22-1.07s.26-1.92,.84-2.7c.58-.78,1.29-1.49,1.65-2.4,.5-1.26,.24-2.7-.16-4-.4-1.3-.93-2.59-.95-3.96-.02-1.36,.63-2.85,1.91-3.31,1.16-.42,2.52,.09,3.65-.39h.02Z"></path>
        <path d="M8.2,36.22c-1.03,0-2.02-.81-2.26-1.83-.23-1.01,.09-2.11,.96-3.29,.16-.22,.33-.43,.5-.64,.43-.53,.83-1.03,1.06-1.59,.45-1.14,.14-2.48-.18-3.53-.08-.26-.17-.52-.25-.78-.35-1.07-.71-2.18-.73-3.37-.02-1.55,.7-3.39,2.38-4,.55-.2,1.11-.22,1.53-.22h.96c.36,0,.77-.02,1.12-.17,.55-.24,.97-.79,1.42-1.38,.57-.76,1.19-1.5,2.13-1.82,.24-.08,.49-.12,.76-.12,1.06,0,1.93,.63,2.1,1.54,.12,.61-.08,1.26-.58,1.88-.98,1.23-2.49,1.77-3.83,2.24-.2,.07-.39,.14-.59,.21-1.74,.64-2.74,1.48-2.98,2.48-.21,.89,.17,1.86,.58,2.9,.48,1.23,1.03,2.62,.52,4.02-.3,.83-.89,1.42-1.45,2-.52,.53-1.02,1.04-1.16,1.63-.07,.29-.07,.63-.07,1,0,.81-.02,1.83-.86,2.47-.31,.24-.69,.36-1.08,.36h0Zm3.02-17.82c-.33,0-.71,.02-1.05,.14-1.01,.37-1.45,1.62-1.44,2.63,0,.98,.33,1.93,.66,2.95,.09,.27,.18,.54,.26,.81,.39,1.27,.75,2.92,.14,4.47-.3,.76-.8,1.37-1.27,1.96-.16,.2-.32,.39-.47,.59-.61,.82-.85,1.53-.72,2.11,.09,.37,.51,.73,.87,.73,.09,0,.16-.02,.22-.07,.26-.2,.29-.64,.29-1.34,0-.43,0-.88,.11-1.32,.23-.98,.92-1.69,1.53-2.31,.48-.49,.94-.95,1.13-1.49,.33-.89-.08-1.92-.5-3.01-.47-1.19-.95-2.43-.64-3.75,.36-1.49,1.66-2.67,3.87-3.48,.2-.07,.4-.15,.6-.22,1.27-.45,2.46-.88,3.19-1.79,.22-.27,.33-.54,.29-.72-.05-.24-.4-.38-.7-.38-.1,0-.2,.02-.29,.05-.55,.19-.99,.73-1.43,1.31-.53,.7-1.11,1.47-2.01,1.85-.58,.25-1.18,.28-1.68,.28h-.96Z"></path>
        <path d="M1.16,31.32c.61-1.03,1.84-1.65,2.38-2.71,.79-1.56-.14-3.39-1.12-4.85s-2.08-3.13-1.58-4.8c.57-1.9,2.97-2.85,3.62-4.73,.73-2.08-.95-4.54,.17-6.45,1.02-1.74,3.81-1.97,4.78-3.73,.36-.65,.41-1.42,.68-2.11s.96-1.35,1.72-1.21c.88,.16,1.18,1.32,.79,2.09s-1.2,1.25-1.93,1.75c-1.66,1.15-3.18,2.91-2.92,4.85,.15,1.13,.89,2.16,.86,3.3-.07,2.61-3.89,3.78-4.5,6.33-.4,1.66,.71,3.28,1.64,4.73,.93,1.46,1.73,3.35,.79,4.8-.62,.95-1.87,1.47-2.26,2.53-.22,.59-.12,1.25-.04,1.88s.12,1.3-.2,1.85-1.13,.89-1.67,.52c-1.44-.74-2.03-2.68-1.22-4.04h.01Z"></path>
        <path d="M2.9,36.22c-.32,0-.63-.09-.89-.26-.86-.45-1.51-1.27-1.79-2.25-.28-.96-.16-1.97,.32-2.77,.34-.58,.82-1.02,1.28-1.44,.44-.4,.85-.79,1.08-1.23,.5-.98,.16-2.29-1.08-4.12-.96-1.43-2.27-3.38-1.67-5.4,.34-1.15,1.2-1.96,2.02-2.73,.69-.66,1.35-1.27,1.61-2.03,.28-.79,.12-1.71-.05-2.69-.21-1.24-.45-2.64,.28-3.89,.61-1.04,1.66-1.58,2.67-2.11,.88-.46,1.72-.9,2.11-1.6,.16-.29,.25-.65,.35-1.03,.08-.33,.17-.66,.3-1,.34-.83,1.14-1.67,2.17-1.67,.11,0,.23,0,.34,.03,.57,.11,1.03,.47,1.31,1.02,.32,.65,.32,1.46,0,2.1-.43,.84-1.21,1.37-1.9,1.84l-.26,.18c-.87,.6-2.88,2.22-2.62,4.16,.06,.41,.21,.83,.38,1.28,.25,.66,.51,1.35,.49,2.13-.05,1.69-1.28,2.8-2.48,3.87-.93,.84-1.81,1.62-2.05,2.6-.31,1.29,.57,2.65,1.41,3.97l.13,.21c1.45,2.27,1.72,4.15,.79,5.57-.32,.5-.76,.87-1.17,1.23-.44,.38-.86,.74-1.02,1.16-.15,.39-.08,.89-.02,1.42v.12c.11,.77,.14,1.58-.28,2.3-.36,.62-1.07,1.03-1.77,1.03h.02ZM7.95,6.25c-.2,.11-.4,.22-.6,.32-.87,.46-1.69,.88-2.1,1.57-.47,.8-.29,1.83-.1,2.93,.19,1.11,.39,2.27-.01,3.4-.38,1.08-1.19,1.85-1.98,2.59-.72,.68-1.4,1.32-1.63,2.1-.41,1.37,.64,2.94,1.49,4.2,.98,1.45,2.16,3.61,1.17,5.57-.34,.67-.87,1.16-1.38,1.63-.4,.37-.78,.72-1.02,1.12-.28,.46-.34,1.06-.17,1.65,.18,.61,.58,1.12,1.1,1.39,.03,0,.05,.03,.08,.05,.01,0,.04,.03,.12,.03,.19,0,.43-.14,.53-.32,.19-.34,.18-.81,.11-1.41v-.12c-.09-.64-.19-1.37,.08-2.1,.29-.77,.89-1.29,1.43-1.75,.36-.31,.69-.59,.91-.92,.6-.92,.33-2.27-.79-4.02l-.13-.21c-.96-1.5-2.05-3.2-1.6-5.08,.34-1.41,1.43-2.39,2.48-3.33,1.01-.91,1.97-1.77,2-2.85,.01-.5-.18-1.03-.4-1.59-.19-.5-.38-1.02-.46-1.59-.15-1.09,.17-2.21,.89-3.27h-.02ZM11.61,1.43c-.3,0-.67,.34-.85,.78-.1,.25-.17,.52-.24,.81-.08,.33-.17,.68-.31,1.02,.02-.01,.04-.03,.06-.04l.27-.19c.6-.41,1.17-.79,1.43-1.3,.12-.24,.12-.58,0-.82-.1-.21-.24-.24-.29-.25h-.07Z"></path>
        <path d="M24.97,35.09c.71-.46,.58-1.67,.23-2.52-1.4-3.41-4.97-5.41-8.25-4.96-.62,.08-1.26,.26-1.72,.72-.82,.83-.81,2.39-.19,3.45,.85,1.46,2.46,2.03,3.96,2.43,1.57,.41,3.16,.75,4.76,1,.41,.06,.85,.12,1.21-.12Z"></path>
        <path d="M24.32,35.97h0c-.24,0-.47-.03-.67-.06-1.62-.25-3.24-.59-4.83-1.01-1.63-.43-3.43-1.09-4.4-2.76-.72-1.24-.81-3.19,.3-4.31,.66-.66,1.53-.85,2.13-.93,.33-.05,.68-.07,1.02-.07,3.44,0,6.65,2.2,7.99,5.47,.49,1.2,.53,2.71-.5,3.39-.29,.19-.64,.29-1.04,.29h0Zm-6.44-7.72c-.28,0-.56,.02-.83,.06-.62,.09-1.04,.25-1.3,.52-.54,.55-.58,1.73-.08,2.59,.7,1.21,2.11,1.72,3.53,2.1,1.54,.41,3.12,.74,4.68,.98,.14,.02,.3,.05,.44,.05,.18,0,.24-.04,.26-.05,.27-.18,.25-.95-.04-1.65-1.11-2.7-3.85-4.58-6.67-4.58v-.02Z"></path>
        <path d="M34.35,19.99c-.4-1.29-.98-2.58-1.98-3.49s-2.53-1.34-3.76-.76c-1.05,.5-1.68,1.63-1.85,2.78-.18,1.14,.04,2.31,.28,3.44,.3,1.37,.66,2.72,1.06,4.06,1.16,2.08,2.2,4.21,2.89,6.46,.15,.48,.26,1.01,.22,1.5,.1,.21,.2,.43,.31,.64,.12,.24,.25,.49,.46,.66,.51,.42,1.33,.21,1.78-.28,.45-.49,.62-1.17,.76-1.82,.92-4.35,1.15-8.95-.17-13.2h0Z"></path>
        <path d="M32.65,36.22h0c-.42,0-.81-.14-1.12-.39-.33-.27-.51-.63-.64-.89-.07-.14-.13-.27-.2-.41l-.11-.23c-.06-.11-.08-.24-.07-.37,.03-.33-.04-.74-.19-1.24-.58-1.9-1.48-3.91-2.83-6.32-.03-.05-.05-.09-.06-.14-.42-1.4-.79-2.79-1.08-4.11-.24-1.12-.49-2.42-.29-3.7,.23-1.52,1.07-2.75,2.25-3.31,.47-.22,.98-.33,1.52-.33,1.07,0,2.17,.44,3.02,1.2,1.25,1.12,1.85,2.71,2.19,3.81,1.21,3.88,1.27,8.44,.19,13.56-.16,.75-.36,1.54-.93,2.15-.42,.46-1.04,.73-1.64,.73h-.01Zm-.71-2.4l.04,.08c.06,.13,.12,.26,.19,.39,.08,.16,.17,.35,.27,.43,.05,.04,.12,.06,.21,.06h0c.2,0,.44-.11,.59-.27,.32-.35,.46-.9,.58-1.48,1.03-4.88,.98-9.2-.15-12.84-.46-1.49-1.03-2.5-1.78-3.17-.85-.77-2.11-1.05-2.97-.64-.88,.42-1.33,1.43-1.45,2.24-.16,1.04,.05,2.14,.28,3.18,.28,1.26,.62,2.59,1.03,3.93,1.38,2.47,2.3,4.55,2.91,6.53,.18,.59,.27,1.1,.26,1.56h-.01Z"></path>
        <path d="M31,32.48c-1.06-3.45-2.93-6.62-4.82-9.75-.42-.69-.85-1.4-1.48-1.94s-1.49-.91-2.33-.77c-1.3,.2-2.1,1.49-2.3,2.71-.33,2.05,.51,4.1,1.67,5.9,1.37,.9,2.51,2.23,3.15,3.85,.66,.66,1.36,1.3,2.1,1.89,.54,.43,1.11,.86,1.79,1.05s1.5,.1,1.99-.38c.66-.65,.5-1.69,.23-2.56h0Z"></path>
        <path d="M29.46,36.22h0c-.3,0-.59-.04-.88-.12-.83-.23-1.49-.73-2.05-1.18-.74-.6-1.46-1.25-2.15-1.94-.07-.07-.12-.15-.16-.24-.56-1.42-1.58-2.67-2.87-3.52-.08-.05-.15-.13-.21-.21-1.52-2.34-2.1-4.44-1.78-6.4,.24-1.45,1.22-3.03,2.89-3.3,.97-.15,2.06,.2,2.91,.94,.72,.63,1.2,1.41,1.62,2.11,2.05,3.39,3.84,6.47,4.89,9.91,.17,.55,.68,2.21-.41,3.28-.44,.44-1.08,.67-1.8,.67h0Zm-3.97-4.15c.62,.62,1.27,1.2,1.94,1.74,.45,.36,.97,.76,1.54,.91,.48,.14,1.04,.05,1.29-.2,.32-.31,.33-.91,.05-1.84-1.01-3.28-2.74-6.28-4.75-9.59-.38-.64-.78-1.29-1.33-1.77-.54-.46-1.2-.69-1.76-.61-.96,.15-1.56,1.2-1.7,2.11-.25,1.57,.23,3.29,1.49,5.27,1.44,.98,2.58,2.38,3.24,3.96v.02Z"></path>
        <path d="M19.11,29.66c.17,.48-.28,1.07-1,1.3s-1.44,.03-1.61-.46c-.17-.48,.28-1.07,1-1.3s1.44-.03,1.61,.46Z"></path>
        <path d="M17.52,31.77c-.81,0-1.47-.4-1.69-1.03-.12-.36-.09-.75,.09-1.12,.25-.5,.74-.9,1.37-1.1,.27-.09,.54-.13,.81-.13,.81,0,1.47,.4,1.69,1.03,.12,.36,.09,.75-.09,1.12-.25,.5-.74,.89-1.37,1.1-.27,.09-.54,.13-.81,.13Zm-.33-1.5s.16,.07,.33,.07c.12,0,.25-.02,.37-.06,.33-.11,.49-.29,.53-.38-.05-.03-.16-.07-.33-.07-.12,0-.25,.02-.37,.06-.33,.11-.49,.29-.53,.38Z"></path>
        <path d="M23.49,22.25c.38,.32,.34,.96-.08,1.41-.42,.46-1.07,.57-1.45,.24s-.34-.96,.08-1.41,1.07-.57,1.45-.24Z"></path>
        <path d="M22.5,24.81c-.38,0-.73-.12-1-.36-.3-.26-.48-.63-.51-1.05-.03-.49,.16-1,.53-1.39,.39-.42,.91-.66,1.44-.66,.38,0,.73,.12,1,.36,.3,.26,.49,.63,.51,1.05,.03,.49-.16,1-.53,1.39-.39,.42-.91,.66-1.44,.66Zm.46-2.03c-.1,0-.26,.05-.39,.2-.12,.13-.16,.26-.15,.34,0,.02,0,.04,0,.04,.03,.03,.27,.02,.46-.18,.12-.13,.16-.26,.15-.34,0-.02,0-.04,0-.05,0,0-.03-.01-.07-.01Z"></path>
        <path d="M31.17,17.92c.2,.58-.25,1.26-1,1.51s-1.52-.02-1.71-.6,.25-1.26,1-1.51,1.52,.02,1.71,.6Z"></path>
        <path d="M29.6,20.23c-.87,0-1.58-.46-1.82-1.18-.32-.95,.33-2.04,1.45-2.42,.26-.09,.53-.13,.79-.13,.87,0,1.58,.46,1.82,1.18,.16,.49,.08,1.04-.23,1.5-.28,.42-.71,.74-1.22,.91-.26,.09-.53,.13-.79,.13h0Zm.42-2.29c-.11,0-.23,.02-.34,.06-.41,.14-.6,.45-.55,.61,.06,.18,.46,.27,.81,.15,.21-.07,.39-.2,.49-.35,.03-.05,.1-.16,.06-.26-.04-.12-.24-.21-.47-.21Z"></path>
  </symbol>
  <symbol id="fishing" xmlns="http://www.w3.org/2000/svg" viewBox="0 0 36.74 35.98">
        <rect x="-1.04" y="28.71" width="13.7" height="2.21" rx=".44" ry=".44" transform="translate(-20.12 13.99) rotate(-47.57)"></rect>
        <path d="M1.95,35.98c-.39,0-.76-.14-1.05-.41l-.4-.36c-.31-.28-.48-.66-.5-1.08-.02-.41,.12-.81,.4-1.12l8.11-8.88c.29-.32,.71-.5,1.15-.5,.39,0,.76,.14,1.05,.4l.4,.36c.31,.28,.48,.66,.5,1.08,.02,.41-.12,.81-.4,1.12L3.1,35.47c-.29,.32-.71,.5-1.15,.5h0Zm7.72-10.9s-.06,0-.09,.04L1.47,33.99s-.03,.07-.03,.09,0,.06,.04,.09l.4,.36c.05,.05,.11,.06,.18,0l8.11-8.88s.03-.07,.03-.09,0-.06-.04-.09l-.4-.36s-.06-.03-.08-.03h-.01Z"></path>
        <path d="M10.72,25.9c-.13,0-.26-.04-.38-.11h0c-.13-.09-.24-.21-.29-.36-.02-.06-.06-.11-.1-.15-.09-.08-.19-.1-.26-.1-.16,.01-.35-.03-.49-.13-.17-.12-.28-.32-.3-.53-.02-.21,.06-.42,.21-.57L33.51,.21c.28-.27,.72-.27,1,0,.28,.27,.28,.72,.02,1L11.24,25.68c-.14,.15-.33,.22-.52,.22Z"></path>
        <path d="M32.95,5.04c-.17,0-.34-.06-.47-.18l-.9-.79c-.3-.26-.33-.71-.07-1.01s.71-.33,1.01-.07l.9,.79c.3,.26,.33,.71,.07,1.01-.14,.16-.34,.24-.54,.24h0Z"></path>
        <path d="M29.63,8.77c-.16,0-.33-.06-.46-.17l-1.31-1.12c-.3-.26-.34-.71-.08-1.01,.26-.3,.71-.34,1.01-.08l1.31,1.12c.3,.26,.34,.71,.08,1.01-.14,.17-.34,.25-.54,.25h-.01Z"></path>
        <path d="M26.31,12.5c-.16,0-.32-.05-.46-.17l-1.73-1.45c-.3-.25-.34-.7-.09-1.01,.25-.3,.7-.34,1.01-.09l1.73,1.45c.3,.25,.34,.7,.09,1.01-.14,.17-.34,.26-.55,.26Z"></path>
        <path d="M22.99,16.24c-.16,0-.32-.05-.46-.16l-2.14-1.77c-.3-.25-.35-.7-.09-1.01,.25-.3,.7-.34,1.01-.09l2.14,1.77c.3,.25,.35,.7,.09,1.01-.14,.17-.34,.26-.55,.26h0Z"></path>
        <path d="M19.68,19.97c-.16,0-.32-.05-.45-.16l-2.55-2.1c-.3-.25-.35-.7-.1-1.01,.25-.3,.7-.35,1.01-.1l2.55,2.1c.3,.25,.35,.7,.1,1.01-.14,.17-.35,.26-.55,.26h-.01Z"></path>
        <path d="M25.56,33.81c-1.47,0-2.98-.55-4.17-1.54-1.32-1.11-2.11-2.63-2.16-4.17-.06-1.85,.92-3.47,1.79-4.67,1.77-2.46,3.96-4.57,6.09-6.61,2.28-2.19,4.64-4.45,6.4-7.11,1.15-1.73,1.71-3.2,1.79-4.62,.05-1.04-.09-2.91-1.63-3.75-.35-.19-.47-.62-.29-.97,.19-.35,.62-.47,.97-.29,1.63,.89,2.5,2.74,2.38,5.08-.09,1.68-.73,3.38-2.02,5.34-1.84,2.79-4.26,5.11-6.6,7.35-2.08,1.99-4.23,4.06-5.92,6.41-.73,1.02-1.56,2.37-1.52,3.79,.03,1.12,.65,2.28,1.65,3.12,1.11,.92,2.56,1.36,3.9,1.16,1.38-.21,2.62-1.1,3.21-2.32,.61-1.25,.51-2.82-.26-3.91-.19-.28-.39-.45-.56-.49-.07-.02-.15,.01-.18,.03-.12,.38-.51,.58-.89,.46s-.58-.53-.47-.9c.23-.74,1.07-1.18,1.88-.97,.51,.13,.97,.48,1.37,1.05,1.06,1.5,1.21,3.66,.38,5.36-.8,1.64-2.44,2.83-4.28,3.1-.28,.04-.57,.06-.86,.06h0Z"></path>
        <path d="M17.13,26.22c0,1.67-1.35,3.02-3.02,3.02s-3.02-1.35-3.02-3.02,1.35-3.02,3.02-3.02,3.02,1.35,3.02,3.02Z"></path>
        <path d="M14.1,29.95c-2.06,0-3.74-1.68-3.74-3.74s1.68-3.74,3.74-3.74,3.74,1.68,3.74,3.74-1.68,3.74-3.74,3.74Zm0-6.04c-1.27,0-2.31,1.03-2.31,2.31s1.03,2.31,2.31,2.31,2.31-1.03,2.31-2.31-1.03-2.31-2.31-2.31Z"></path>
  </symbol>
  <symbol id="lighthouse" xmlns="http://www.w3.org/2000/svg" viewBox="0 0 29.58 36.55">
        <path d="M21.4,35.84H8.3c-1.29,0-2.35-1.06-2.35-2.35h0c0-1.29,1.06-2.35,2.35-2.35h13.1c1.29,0,2.35,1.06,2.35,2.35h0c0,1.29-1.06,2.35-2.35,2.35Z"></path>
        <path d="M21.4,36.55H8.3c-1.69,0-3.07-1.38-3.07-3.07s1.38-3.07,3.07-3.07h13.1c1.69,0,3.07,1.38,3.07,3.07s-1.38,3.07-3.07,3.07Zm-13.1-4.71c-.9,0-1.64,.74-1.64,1.64s.74,1.64,1.64,1.64h13.1c.9,0,1.64-.74,1.64-1.64s-.74-1.64-1.64-1.64H8.3Z"></path>
        <polygon points="20.24 31.13 9.47 31.13 11.81 8.87 17.9 8.87 20.24 31.13"></polygon>
        <path d="M20.24,31.84H9.47c-.2,0-.4-.09-.53-.24-.14-.15-.2-.35-.18-.55l2.33-22.26c.04-.36,.34-.64,.71-.64h6.1c.37,0,.67,.28,.71,.64l2.32,22.16c0,.06,.02,.11,.02,.18,0,.39-.32,.71-.71,.71h0Zm-9.98-1.43h9.18l-2.18-20.83h-4.81l-2.18,20.83h-.01Z"></path>
        <rect x="12.86" y="6.25" width="3.99" height="2.5"></rect>
        <path d="M16.85,9.46h-3.99c-.39,0-.71-.32-.71-.71v-2.5c0-.39,.32-.71,.71-.71h3.99c.39,0,.71,.32,.71,.71v2.5c0,.39-.32,.71-.71,.71Zm-3.27-1.43h2.56v-1.07h-2.56v1.07Z"></path>
        <polygon points="14.47 .71 20.62 6.25 9.09 6.25 14.47 .71"></polygon>
        <path d="M20.62,6.97H9.1c-.29,0-.55-.17-.66-.44-.11-.26-.05-.57,.15-.78L13.96,.22c.27-.28,.7-.29,.99-.03l6.08,5.49c.18,.13,.3,.34,.3,.58,0,.39-.32,.71-.71,.71Zm-9.84-1.43h7.98L14.51,1.71l-3.73,3.83Z"></path>
        <polygon points="23.32 7.87 28.86 1.73 28.86 13.26 23.32 7.87"></polygon>
        <path d="M28.86,13.97c-.18,0-.36-.07-.5-.2l-5.54-5.38c-.28-.27-.29-.71-.03-.99L28.33,1.26c.2-.22,.51-.29,.79-.19,.28,.11,.46,.37,.46,.67V13.26c0,.29-.17,.55-.44,.66-.09,.04-.18,.06-.28,.06h0Zm-4.55-6.14l3.83,3.73V3.59l-3.83,4.25Z"></path>
        <polygon points="6.26 7.11 .72 13.26 .72 1.73 6.26 7.11"></polygon>
        <path d="M.72,13.97c-.09,0-.17-.02-.26-.05-.28-.11-.46-.37-.46-.67V1.73c0-.29,.17-.55,.44-.66,.26-.11,.57-.05,.78,.15L6.76,6.6c.28,.27,.29,.71,.03,.99L1.25,13.73c-.14,.15-.33,.24-.53,.24ZM1.43,3.42v7.98l3.83-4.25S1.43,3.42,1.43,3.42Z"></path>
        <path d="M13.78,31.77c-.19,0-.38-.08-.52-.23-.27-.29-.26-.74,.03-1.01l5.87-5.5c.29-.27,.74-.26,1.01,.03,.27,.29,.26,.74-.03,1.01l-5.87,5.5c-.14,.13-.31,.19-.49,.19h0Z"></path>
        <path d="M9.95,29.02c-.19,0-.38-.07-.52-.22-.27-.29-.26-.74,.02-1.01l9.09-8.67c.29-.27,.74-.26,1.01,.02,.27,.29,.26,.74-.02,1.01l-9.09,8.67c-.14,.13-.32,.2-.49,.2h0Z"></path>
        <path d="M10.56,21.65c-.19,0-.38-.07-.52-.22-.27-.29-.26-.74,.03-1.01l7.83-7.41c.29-.27,.74-.26,1.01,.03,.27,.29,.26,.74-.03,1.01l-7.83,7.41c-.14,.13-.31,.2-.49,.2h0Z"></path>
        <path d="M11.44,15.14c-.19,0-.38-.08-.52-.23-.27-.29-.25-.74,.04-1.01l5.75-5.33c.29-.27,.74-.25,1.01,.04,.27,.29,.25,.74-.04,1.01l-5.75,5.33c-.14,.13-.31,.19-.49,.19h0Z"></path>
  </symbol>
  <symbol id="anchor" xmlns="http://www.w3.org/2000/svg" viewBox="0 0 33.89 36.51">
        <path d="M32.65,24.01l-5.52-.04,2.26,1.89c-1.03,.99-7.47,4.36-8,2.59-.71-2.39-2.78-2.53-2.78-2.53V13.06h5.46c.34,.3,.8,.49,1.29,.49,1.08,0,1.95-.88,1.95-1.95s-.88-1.95-1.95-1.95c-.58,0-1.09,.25-1.45,.65h-5.3v-3.41s1.58-1.64,1.58-2.9c0-1.8-1.46-3.26-3.26-3.26s-3.26,1.46-3.26,3.26c0,1.27,1.58,2.9,1.58,2.9v3.41h-5.26c-.36-.4-.88-.65-1.45-.65-1.08,0-1.95,.88-1.95,1.95s.88,1.95,1.95,1.95c.5,0,.95-.19,1.29-.49h5.42v12.85s-2.07,.14-2.78,2.53c-.53,1.77-6.96-1.6-8-2.59l2.26-1.89-5.52,.04-.51,4.97,2.27-1.9s3.68,5.22,13.94,8.72h.04c10.26-3.5,13.94-8.72,13.94-8.72l2.27,1.9-.51-4.97h0Z"></path>
        <path d="M16.96,36.51h-.04c-.08,0-.16,0-.23-.04-8.43-2.88-12.5-6.87-13.81-8.38l-1.71,1.43c-.22,.19-.54,.22-.79,.08-.26-.14-.41-.41-.38-.7l.51-4.97c.04-.36,.34-.64,.71-.64l5.52-.04h0c.3,0,.57,.19,.67,.47,.1,.28,.02,.6-.21,.79l-1.57,1.31c1.44,.92,4.49,2.41,5.89,2.41,.16,0,.24-.02,.28-.03,.59-1.92,1.92-2.61,2.74-2.86V13.78h-4.46c-.45,.32-.99,.49-1.54,.49-1.47,0-2.67-1.2-2.67-2.67s1.2-2.67,2.67-2.67c.64,0,1.26,.23,1.74,.65h4.26v-2.42c-.48-.54-1.58-1.93-1.58-3.18,0-2.19,1.78-3.98,3.98-3.98s3.98,1.78,3.98,3.98c0,1.25-1.1,2.64-1.58,3.18v2.42h4.3c.48-.42,1.1-.65,1.74-.65,1.47,0,2.67,1.2,2.67,2.67s-1.2,2.67-2.67,2.67c-.55,0-1.09-.17-1.54-.49h-4.5v11.56c.81,.25,2.15,.94,2.74,2.86,.04,.01,.12,.03,.28,.03,1.4,0,4.46-1.49,5.89-2.41l-1.57-1.31c-.23-.19-.32-.51-.21-.79,.1-.28,.37-.47,.67-.47h0l5.52,.04c.36,0,.67,.28,.71,.64l.51,4.97c.03,.29-.12,.57-.38,.7-.26,.14-.57,.1-.79-.08l-1.72-1.43c-1.31,1.51-5.38,5.5-13.81,8.38-.07,.03-.15,.04-.23,.04h.01ZM2.99,26.36h.09c.2,.03,.38,.13,.49,.3,.03,.05,3.65,5.01,13.37,8.38,9.76-3.39,13.34-8.33,13.37-8.38,.12-.16,.29-.27,.49-.3,.2-.03,.4,.03,.55,.16l.92,.77-.27-2.58-2.89-.02,.73,.61c.16,.13,.25,.32,.26,.52,0,.2-.07,.4-.22,.54-.96,.92-5.38,3.29-7.54,3.29-1.16,0-1.52-.64-1.64-1.02-.55-1.86-2.09-2.01-2.15-2.02-.37-.03-.66-.34-.66-.71V13.06c0-.39,.32-.71,.71-.71h5.46c.17,0,.34,.06,.47,.18,.23,.2,.52,.31,.82,.31,.68,0,1.24-.56,1.24-1.24s-.56-1.24-1.24-1.24c-.35,0-.68,.15-.92,.41-.14,.15-.33,.24-.53,.24h-5.3c-.39,0-.71-.32-.71-.71v-3.41c0-.19,.07-.36,.2-.5,.53-.55,1.38-1.7,1.38-2.41,0-1.41-1.14-2.55-2.55-2.55s-2.55,1.14-2.55,2.55c0,.74,.93,1.94,1.38,2.41,.13,.13,.2,.31,.2,.5v3.41c0,.39-.32,.71-.71,.71h-5.26c-.2,0-.4-.09-.53-.24-.24-.27-.57-.41-.92-.41-.68,0-1.24,.56-1.24,1.24s.56,1.24,1.24,1.24c.3,0,.59-.11,.82-.31,.13-.12,.3-.18,.47-.18h5.42c.39,0,.71,.32,.71,.71v12.85c0,.38-.29,.69-.67,.71-.06,0-1.59,.16-2.14,2.02-.11,.38-.48,1.02-1.64,1.02h0c-2.16,0-6.58-2.37-7.54-3.29-.15-.14-.23-.34-.22-.54,0-.2,.1-.39,.26-.52l.73-.61-2.89,.02-.27,2.58,.92-.77c.13-.11,.29-.17,.46-.17h.04Z"></path>
  </symbol>
</svg>